HIERARCHY
ROOT Pelvis
{
	OFFSET 0.000000 0.000000 0.000000
	CHANNELS 6 Xposition Yposition Zposition Zrotation Yrotation Xrotation 
	JOINT Left_hip
	{
		OFFSET 0.076090 -0.089427 -0.010735
		CHANNELS 3 Zrotation Yrotation Xrotation
		JOINT Left_knee
		{
			OFFSET 0.030200 -0.359518 -0.003501
			CHANNELS 3 Zrotation Yrotation Xrotation
			JOINT Left_ankle
			{
				OFFSET -0.011005 -0.371022 -0.045888
				CHANNELS 3 Zrotation Yrotation Xrotation
				JOINT Left_foot
				{
					OFFSET 0.023930 -0.052103 0.111084
					CHANNELS 3 Zrotation Yrotation Xrotation
					End Site
					{
						OFFSET 0.000000 0.000000 0.000000
					}
				}
			}
		}
	}
	JOINT Right_hip
	{
		OFFSET -0.073836 -0.088112 -0.007709
		CHANNELS 3 Zrotation Yrotation Xrotation
		JOINT Right_knee
		{
			OFFSET -0.035715 -0.367809 -0.006536
			CHANNELS 3 Zrotation Yrotation Xrotation
			JOINT Right_ankle
			{
				OFFSET 0.013718 -0.371958 -0.043815
				CHANNELS 3 Zrotation Yrotation Xrotation
				JOINT Right_foot
				{
					OFFSET -0.021936 -0.046387 0.114542
					CHANNELS 3 Zrotation Yrotation Xrotation
					End Site
					{
						OFFSET 0.000000 0.000000 0.000000
					}
				}
			}
		}
	}
	JOINT Spine1
	{
		OFFSET -0.001865 0.102064 -0.019455
		CHANNELS 3 Zrotation Yrotation Xrotation
		JOINT Spine2
		{
			OFFSET 0.003082 0.129260 -0.001938
			CHANNELS 3 Zrotation Yrotation Xrotation
			JOINT Spine3
			{
				OFFSET 0.001104 0.048093 0.026561
				CHANNELS 3 Zrotation Yrotation Xrotation
				JOINT Neck
				{
					OFFSET -0.002010 0.204222 -0.047183
					CHANNELS 3 Zrotation Yrotation Xrotation
					JOINT Head
					{
						OFFSET 0.005050 0.063649 0.048489
						CHANNELS 3 Zrotation Yrotation Xrotation
						End Site
						{
							OFFSET 0.000000 0.000000 0.000000
						}
					}
				}
				JOINT Left_collar
				{
					OFFSET 0.072979 0.114065 -0.031633
					CHANNELS 3 Zrotation Yrotation Xrotation
					JOINT Left_shoulder
					{
						OFFSET 0.083419 0.032092 -0.006530
						CHANNELS 3 Zrotation Yrotation Xrotation
						JOINT Left_elbow
						{
							OFFSET 0.239393 -0.012014 -0.025060
							CHANNELS 3 Zrotation Yrotation Xrotation
							JOINT Left_wrist
							{
								OFFSET 0.227297 0.008116 0.000384
								CHANNELS 3 Zrotation Yrotation Xrotation
								JOINT Left_palm
								{
									OFFSET 0.074607 -0.009248 -0.012277
									CHANNELS 3 Zrotation Yrotation Xrotation
									End Site
									{
										OFFSET 0.000000 0.000000 0.000000
									}
								}
							}
						}
					}
				}
				JOINT Right_collar
				{
					OFFSET -0.074980 0.111880 -0.037894
					CHANNELS 3 Zrotation Yrotation Xrotation
					JOINT Right_shoulder
					{
						OFFSET -0.087565 0.034353 -0.009323
						CHANNELS 3 Zrotation Yrotation Xrotation
						JOINT Right_elbow
						{
							OFFSET -0.236838 -0.013719 -0.019794
							CHANNELS 3 Zrotation Yrotation Xrotation
							JOINT Right_wrist
							{
								OFFSET -0.235053 0.006433 -0.003853
								CHANNELS 3 Zrotation Yrotation Xrotation
								JOINT Right_palm
								{
									OFFSET -0.075499 -0.006894 -0.009792
									CHANNELS 3 Zrotation Yrotation Xrotation
									End Site
									{
										OFFSET 0.000000 0.000000 0.000000
									}
								}
							}
						}
					}
				}
			}
		}
	}
}
MOTION
Frames: 5
Frame Time: 0.100000
0.208114 0.318901 -0.272444 175.598007 28.606058 -54.670100 9.290633 -11.217638 -62.767415 2.299971 16.901293 63.633581 1.994040 -2.704992 23.527285 -7.675550 21.095623 -21.635899 -6.361151 2.878175 -37.695551 -6.197965 -9.735555 94.035172 -9.971282 0.159425 3.743149 20.517905 -13.593938 -12.205815 2.477518 1.514935 38.960325 3.723923 0.167862 -1.539721 1.484039 -0.840485 -3.659064 -2.110009 -1.542327 -0.585789 -5.034399 -0.529203 7.637216 -15.913173 -17.619856 0.483881 -64.613260 -40.591003 18.632356 154.232448 -39.404303 -108.883705 -7.493878 -8.695457 -13.334253 0.413191 2.990972 2.440421 9.751200 21.229313 -1.790648 57.166704 35.540992 18.544769 -147.941587 38.150511 -109.251631 6.841851 7.717195 -18.463883 -3.902619 2.306388 9.573262 
0.204817 0.316684 -0.264650 174.649812 29.081854 -52.905492 12.180173 -12.478535 -59.172985 -0.645574 10.678432 76.123967 3.148038 -2.464325 20.336894 -8.692704 21.366205 -24.148766 -11.128799 0.971006 -42.260144 -5.634039 -9.886062 98.872453 -11.321353 -0.915174 -0.713734 19.519667 -15.289230 -12.072064 1.711556 1.679184 34.411982 4.028215 0.966280 -1.046589 1.094031 -0.913243 -4.233128 -0.251692 -2.009622 -0.248744 -4.677265 -1.653673 7.305663 -16.151384 -16.681709 1.197743 -64.180085 -41.293358 19.033636 154.509769 -39.538399 -109.417725 -7.053663 -7.812980 -14.744428 -0.295659 3.501025 3.984680 11.058796 20.593282 -1.029224 57.434749 35.205334 19.092833 -149.137429 37.669769 -109.457934 7.279330 6.594167 -17.901020 -4.408478 2.328087 9.529771 
0.199395 0.312629 -0.258496 173.463172 29.194044 -49.898284 13.440494 -11.629114 -57.289915 -2.381084 9.806627 96.024216 5.293854 -2.125768 16.722570 -11.016449 21.704381 -29.016770 -13.775153 -2.546419 -46.236737 -4.339193 -11.408297 109.504862 -12.472019 0.278313 -7.626337 17.345776 -15.925700 -13.023732 1.719692 1.492280 30.440246 4.094240 1.784547 -0.986788 0.516129 -0.854829 -4.779299 1.189016 -2.794756 -2.245300 -4.720412 -2.619667 6.846186 -15.934574 -16.141967 1.191866 -64.990011 -41.270611 19.191715 155.611076 -39.314269 -110.575671 -6.853994 -6.975750 -16.927116 -1.904438 4.161707 5.606116 11.257296 20.441129 -0.836455 57.224637 35.406962 18.346542 -151.232766 37.425116 -111.113516 7.956335 5.905082 -18.062623 -3.631168 2.373864 9.763016 
0.196528 0.308244 -0.259289 172.690827 29.441349 -45.713276 14.291049 -11.361979 -57.540841 -3.629362 10.928448 112.237666 8.968494 -0.943250 4.744849 -12.050257 21.602066 -30.936323 -14.312650 -3.642329 -48.238998 -1.938058 -12.022885 117.536166 -9.417244 3.873465 -11.744476 12.131133 -15.309957 -14.013252 1.007827 1.561321 28.505067 4.612121 1.632231 -1.957081 0.358749 -0.812789 -5.143864 2.774143 -2.350409 -5.260173 -4.658078 -3.839192 6.331308 -14.696332 -16.397375 0.424746 -65.797058 -41.029154 19.199129 156.654871 -38.809035 -111.662969 -6.551931 -7.048353 -18.728702 -3.492667 4.225591 6.804338 10.738644 20.282244 -1.928708 57.640234 35.632186 17.976556 -152.213935 38.087674 -111.970310 8.166111 5.933091 -18.781122 -1.666743 2.876950 9.638635 
0.194306 0.304608 -0.258092 172.186151 29.636034 -43.029283 14.354076 -11.562921 -57.857840 -4.381588 11.175487 122.385646 10.804006 -0.043932 -2.121387 -12.794021 21.430753 -31.923491 -14.182458 -2.610875 -48.437010 -0.481428 -10.960485 121.152367 -7.880785 5.228369 -14.796071 9.946009 -15.350139 -14.911419 0.512588 1.620786 28.281411 4.888684 1.289922 -2.617719 0.303512 -0.858368 -5.276207 3.631281 -2.537883 -6.747258 -4.228470 -4.911752 5.866113 -13.842078 -17.424658 -0.077580 -65.824737 -41.683930 19.088324 155.942100 -38.956760 -111.003686 -6.271116 -7.047273 -18.855840 -3.545969 4.492680 7.963190 10.173481 20.603621 -2.786660 58.024400 34.913005 17.842142 -152.179422 38.438783 -111.676360 8.111076 5.874215 -19.586762 -1.524455 3.051461 10.036727 
